<svg version="1.1" xmlns="http://www.w3.org/2000/svg" xmlns:xlink="http://www.w3.org/1999/xlink"
    x="0px" y="0px" viewBox="-1.549 3.339 100 91.08" enable-background="new -1.549 3.339 100 91.08"
    xml:space="preserve" preserveAspectRatio="none" width="100%" height="100%" class=""
    fill="rgba(237, 28, 37, 1)">
    <g>
        <path d="M50.716,78.019H0.021c-0.867,0-1.569-0.703-1.569-1.569V12.662c0-0.867,0.702-1.571,1.569-1.571
            c0.867,0,1.571,0.704,1.571,1.571v62.217h49.125c0.867,0,1.57,0.703,1.57,1.57C52.286,77.315,51.583,78.019,50.716,78.019z"></path>
        <path d="M96.882,78.019h-5.773c-0.867,0-1.569-0.703-1.569-1.569c0-0.867,0.702-1.57,1.569-1.57h4.203V6.479H0.871
            C0.004,6.479-0.7,5.777-0.7,4.91c0-0.867,0.704-1.571,1.571-1.571h96.011c0.866,0,1.569,0.704,1.569,1.571v71.54
            C98.451,77.315,97.748,78.019,96.882,78.019z"></path>
        <path d="M55.581,71.336H7.807c-0.724,0-1.31-0.587-1.311-1.312L6.454,11.53c0-0.349,0.138-0.682,0.385-0.928
            c0.245-0.247,0.578-0.385,0.926-0.385h82.534c0.725,0,1.312,0.587,1.312,1.311v58.496c0,0.351-0.14,0.685-0.39,0.931
            c-0.249,0.25-0.593,0.402-0.937,0.381l-4.301-0.049c-0.725-0.009-1.302-0.603-1.296-1.326c0.009-0.724,0.571-1.351,1.326-1.296
            l2.975,0.033V12.839H9.076l0.041,55.875h46.464c0.725,0,1.312,0.587,1.312,1.311C56.893,70.749,56.306,71.336,55.581,71.336z"></path>
        <path d="M63.696,23.825H18.015c-0.861,0-1.558-0.697-1.558-1.558s0.697-1.557,1.558-1.557h45.681c0.861,0,1.558,0.696,1.558,1.557
            S64.558,23.825,63.696,23.825z"></path>
        <path d="M50.199,36.8H18.015c-0.861,0-1.558-0.696-1.558-1.557s0.697-1.558,1.558-1.558h32.184c0.86,0,1.558,0.697,1.558,1.558
            S51.06,36.8,50.199,36.8z"></path>
        <path d="M50.199,56.656H18.015c-0.861,0-1.558-0.696-1.558-1.557c0-0.861,0.697-1.558,1.558-1.558h32.184
            c0.86,0,1.558,0.696,1.558,1.558C51.757,55.96,51.06,56.656,50.199,56.656z"></path>
        <path d="M62.012,93.385c-0.502,0-0.974-0.24-1.266-0.65l-5.04-7.033l-9.333,1.181c-0.598,0.079-1.167-0.191-1.493-0.688
            c-0.327-0.493-0.345-1.132-0.046-1.643l10.182-17.453c0.432-0.745,1.39-1.001,2.129-0.56c0.742,0.432,0.995,1.387,0.56,2.129
            l-8.591,14.728l7.125-0.899c0.569-0.079,1.129,0.176,1.46,0.639l4.155,5.8l6.972-12.373c0.423-0.755,1.381-1.017,2.12-0.594
            c0.751,0.423,1.016,1.372,0.593,2.12l-8.17,14.503c-0.262,0.466-0.742,0.764-1.271,0.791
            C62.066,93.385,62.039,93.385,62.012,93.385z"></path>
        <path d="M82.497,94.419c-0.478,0-0.934-0.219-1.231-0.605L68.949,77.888c-0.525-0.679-0.401-1.658,0.28-2.185
            c0.675-0.522,1.654-0.407,2.184,0.28l10.376,13.414l1.797-6.93c0.146-0.553,0.581-0.982,1.135-1.119l6.936-1.712l-8.772-10.975
            c-0.535-0.672-0.429-1.651,0.243-2.19c0.679-0.532,1.654-0.426,2.19,0.244L95.61,79.591c0.331,0.417,0.429,0.971,0.258,1.476
            c-0.17,0.502-0.587,0.882-1.101,1.01l-8.398,2.074l-2.363,9.104c-0.152,0.575-0.614,1.013-1.195,1.135
            C82.707,94.41,82.601,94.419,82.497,94.419z"></path>
        <path d="M70.248,78.197c-9.125,0-16.547-7.421-16.547-16.543c0-9.124,7.422-16.547,16.547-16.547s16.547,7.423,16.547,16.547
            C86.795,70.776,79.373,78.197,70.248,78.197z M70.248,48.222c-7.406,0-13.432,6.025-13.432,13.433
            c0,7.403,6.025,13.429,13.432,13.429c7.407,0,13.433-6.025,13.433-13.429C83.681,54.247,77.655,48.222,70.248,48.222z"></path>
        <path stroke="#000000" stroke-width="0.8414" stroke-linecap="round" stroke-linejoin="round" stroke-miterlimit="10" d="
            M55.095,70.024"></path>
        <path stroke="#000000" stroke-width="1.0083" stroke-linecap="round" stroke-linejoin="round" stroke-miterlimit="10" d="
            M70.248,76.644"></path>
    </g>
</svg>