<svg xmlns="http://www.w3.org/2000/svg" data-name="Layer 3" viewBox="0 0 64 64" x="0px" y="0px"
    preserveAspectRatio="none" width="100%" height="100%" class="" fill="rgba(237, 28, 37, 1)">
    <path
        d="M57.561,46.9A6.735,6.735,0,0,0,52.7,45.01,7.047,7.047,0,0,0,46,40a6.959,6.959,0,0,0-1.83.245.9.9,0,0,1-.99-.528c-.108-.2-.228-.4-.356-.595a11.584,11.584,0,0,1,1.126-1.5A15.939,15.939,0,0,0,48,27c0-.5-.031-1.007-.078-1.508L61.05,12.364h0A6.657,6.657,0,0,0,51.636,2.95L40.88,13.706a15.841,15.841,0,0,0-20.261,2.139c-2.472-2.876-5.049-5.674-7.714-8.349l-.66-2.639A5.09,5.09,0,0,0,7.305,1H2A1,1,0,0,0,1,2V7.305a5.093,5.093,0,0,0,3.857,4.939L7.5,12.9c3.027,3.017,6.205,5.927,9.484,8.691A15.633,15.633,0,0,0,16,26.9a15.958,15.958,0,0,0,3.922,10.573,13.2,13.2,0,0,1,1.236,1.674c-.12.182-.233.369-.336.561a.924.924,0,0,1-.994.532A6.96,6.96,0,0,0,18,40a7.047,7.047,0,0,0-6.7,5.01A6.732,6.732,0,0,0,6.44,46.9a6.714,6.714,0,0,0-1.305,8.913,4.976,4.976,0,0,0,.656,3.869A7.108,7.108,0,0,0,11.878,63H52.122a7.108,7.108,0,0,0,6.087-3.319,4.976,4.976,0,0,0,.656-3.869,6.715,6.715,0,0,0-1.3-8.913ZM34,55a2,2,0,0,1-4,0Zm-8-2a1,1,0,0,1-1-1V51H39v1a1,1,0,0,1-1,1Zm13-4H25V47H39ZM34.44,26.854l2.706,2.706-3.721,1.015Zm4.928,2.1-4.322-4.322L35.764,22H39v2a1,1,0,0,0,1,1h2v3.237ZM43,23H41V21a1,1,0,0,0-1-1H37.415L48,9.414,54.586,16,44,26.586V24A1,1,0,0,0,43,23ZM49.414,8,51,6.415,57.586,13,56,14.586Zm6.929-5a4.657,4.657,0,0,1,3.293,7.95L59,11.586,52.415,5l.636-.636A4.621,4.621,0,0,1,56.343,3ZM22.52,21.251,24.9,24.219a.489.489,0,0,1,.105.3.5.5,0,0,1-.781.375L21.25,22.52c-3.006-2.406-5.941-4.947-8.769-7.587l2.452-2.452C17.573,15.31,20.115,18.244,22.52,21.251ZM3.906,9.491A3.071,3.071,0,0,1,3,7.305V3H7.305a3.09,3.09,0,0,1,3,2.342l.588,2.351-3.2,3.2L5.342,10.3A3.078,3.078,0,0,1,3.906,9.491ZM12,9.417c.524.531,1.037,1.077,1.554,1.617l-2.518,2.518c-.541-.517-1.086-1.03-1.617-1.554Zm6,17.5a13.625,13.625,0,0,1,.616-3.975c.462.38.919.768,1.385,1.141l2.968,2.375h0a2.481,2.481,0,0,0,3.487-3.487L24.082,20c-.707-.883-1.433-1.755-2.161-2.625a13.982,13.982,0,0,1,9.414-4.36,13.837,13.837,0,0,1,8.109,2.126l-5.151,5.151a1,1,0,0,0-.258.444l-3,11A1,1,0,0,0,32,33a1.028,1.028,0,0,0,.263-.035l11-3a1,1,0,0,0,.444-.258l2.273-2.273a13.928,13.928,0,0,1-3.523,8.856A13.557,13.557,0,0,0,39,45H25a14.088,14.088,0,0,0-3.565-8.836A13.95,13.95,0,0,1,18,26.916Zm38.984,28.1a1,1,0,0,0-.163.882,3.1,3.1,0,0,1-.322,2.751A5.1,5.1,0,0,1,52.122,61H11.878A5.1,5.1,0,0,1,7.5,58.645a3.1,3.1,0,0,1-.322-2.752,1,1,0,0,0-.163-.882A4.956,4.956,0,0,1,6,52.057,4.89,4.89,0,0,1,7.764,48.4,4.535,4.535,0,0,1,11.9,47.086a1,1,0,0,0,1.167-.836A5.025,5.025,0,0,1,18,42a4.964,4.964,0,0,1,1.3.174,2.821,2.821,0,0,0,2.9-.967,11.255,11.255,0,0,1,.8,4.115V52a3,3,0,0,0,3,3h2a4,4,0,0,0,8,0h2a3,3,0,0,0,3-3V45.315a11.474,11.474,0,0,1,.773-4.133,2.822,2.822,0,0,0,2.925.993A4.918,4.918,0,0,1,46,42a5.025,5.025,0,0,1,4.937,4.25,1,1,0,0,0,1.167.836A4.539,4.539,0,0,1,56.237,48.4,4.892,4.892,0,0,1,58,52.057,4.956,4.956,0,0,1,56.984,55.011Z"></path>
    <rect x="31" y="2" width="2" height="6.998"></rect>
    <rect x="36.964" y="6.5" width="7.071" height="2"
        transform="translate(6.559 30.835) rotate(-45)"></rect>
    <rect x="22.5" y="3.964" width="2" height="7.071" transform="translate(1.58 18.814) rotate(-45)"></rect>
    <path
        d="M60.636,32.364a3.978,3.978,0,0,0-7.272,0,3.978,3.978,0,0,0,0,7.272,3.978,3.978,0,0,0,7.272,0,3.978,3.978,0,0,0,0-7.272ZM59.572,37.9a1,1,0,0,0-.67.67,1.98,1.98,0,0,1-3.8,0,1,1,0,0,0-.67-.67,1.979,1.979,0,0,1,0-3.8,1,1,0,0,0,.67-.67,1.98,1.98,0,0,1,3.8,0,1,1,0,0,0,.67.67,1.979,1.979,0,0,1,0,3.8Z"></path>
    <path
        d="M7,42a3.961,3.961,0,0,0,3.636-2.364,3.978,3.978,0,0,0,0-7.272,3.978,3.978,0,0,0-7.272,0,3.978,3.978,0,0,0,0,7.272A3.961,3.961,0,0,0,7,42ZM3,36a1.978,1.978,0,0,1,1.428-1.9,1,1,0,0,0,.67-.67,1.98,1.98,0,0,1,3.8,0,1,1,0,0,0,.67.67,1.979,1.979,0,0,1,0,3.8,1,1,0,0,0-.67.67,1.98,1.98,0,0,1-3.8,0,1,1,0,0,0-.67-.67A1.978,1.978,0,0,1,3,36Z"></path>
</svg>